<svg id="svg" version="1.1" xmlns="http://www.w3.org/2000/svg" xmlns:xlink="http://www.w3.org/1999/xlink" width="400" height="282.8462003628301" viewBox="0, 0, 400,282.8462003628301"><g id="svgg"><path id="path0" d="M0.000 141.417 L 0.000 282.833 200.000 282.833 L 400.000 282.833 400.000 141.417 L 400.000 0.000 200.000 0.000 L 0.000 0.000 0.000 141.417 M130.352 75.933 C 131.212 76.721,132.018 77.462,132.141 77.580 C 132.298 77.730,132.460 78.996,132.677 81.772 C 132.848 83.960,133.108 87.283,133.254 89.157 L 133.519 92.564 135.755 94.925 L 137.991 97.286 138.942 97.398 C 141.482 97.697,141.592 97.632,145.126 93.773 C 146.361 92.424,146.256 92.822,146.580 88.250 C 146.723 86.233,146.957 83.083,147.101 81.250 L 147.361 77.917 149.139 76.215 L 150.917 74.513 152.439 74.507 L 153.962 74.500 154.296 75.708 C 154.479 76.373,155.085 78.474,155.641 80.376 C 156.564 83.530,156.669 84.053,156.830 86.293 C 156.928 87.644,157.115 90.063,157.247 91.667 C 157.378 93.271,157.536 95.371,157.598 96.333 C 157.711 98.118,157.839 98.527,158.663 99.750 C 159.064 100.346,159.495 101.790,160.689 106.542 C 160.898 107.372,161.056 107.331,162.359 106.117 C 163.307 105.233,165.667 101.157,165.667 100.402 C 165.667 100.373,166.148 99.344,166.737 98.116 C 167.874 95.746,167.880 95.739,170.093 94.167 C 186.024 82.844,183.490 84.391,188.552 82.904 L 190.688 82.277 191.427 82.636 C 191.833 82.834,192.466 83.185,192.833 83.416 L 193.500 83.838 193.500 88.522 L 193.500 93.206 192.591 97.895 C 192.090 100.473,191.477 103.668,191.226 104.994 L 190.771 107.405 188.944 110.244 C 187.939 111.806,186.656 113.796,186.093 114.667 C 185.530 115.537,184.847 116.604,184.576 117.036 C 183.804 118.267,183.667 118.110,183.667 116.000 L 183.667 114.167 154.000 114.167 L 124.333 114.167 124.333 121.917 L 124.333 129.667 143.323 129.667 C 153.768 129.667,162.349 129.723,162.392 129.793 C 162.435 129.862,161.333 132.209,159.943 135.008 C 158.554 137.806,155.602 143.768,153.385 148.256 C 151.167 152.745,147.053 161.067,144.241 166.750 C 135.090 185.248,132.000 191.519,132.000 191.593 C 132.000 191.634,136.689 191.667,142.421 191.667 L 152.841 191.667 154.423 188.417 C 155.293 186.629,156.075 185.167,156.161 185.167 C 156.397 185.167,156.484 185.923,156.776 190.500 L 156.877 192.083 154.429 196.975 C 151.987 201.857,151.980 201.868,151.283 202.140 C 150.898 202.290,149.083 203.111,147.250 203.964 C 145.417 204.816,142.967 205.930,141.806 206.439 L 139.695 207.365 138.416 206.766 C 137.712 206.436,137.115 206.167,137.089 206.167 C 137.062 206.167,135.887 205.617,134.478 204.946 C 133.069 204.275,131.355 203.469,130.668 203.155 C 129.981 202.840,129.043 202.396,128.584 202.167 L 127.750 201.750 125.295 196.833 L 122.841 191.917 123.090 189.083 C 123.227 187.525,123.486 184.713,123.666 182.833 C 123.846 180.954,124.043 178.866,124.104 178.193 L 124.216 176.968 120.783 173.526 L 117.350 170.083 116.508 167.240 L 115.667 164.397 115.667 160.828 L 115.667 157.260 114.724 156.307 L 113.781 155.354 114.140 154.214 C 114.595 152.772,114.588 152.588,114.036 151.630 C 113.304 150.357,110.226 145.108,108.723 142.569 L 107.333 140.221 107.333 137.944 C 107.333 136.691,107.276 135.667,107.207 135.667 C 107.137 135.667,105.993 136.147,104.665 136.734 C 103.337 137.321,102.191 137.765,102.120 137.721 C 102.009 137.653,102.964 136.436,104.059 135.251 C 104.228 135.067,104.565 134.654,104.808 134.333 C 105.050 134.012,105.286 133.712,105.332 133.667 C 105.379 133.621,105.894 132.998,106.477 132.283 L 107.537 130.983 107.252 128.684 L 106.967 126.384 107.330 125.672 C 107.780 124.792,108.320 125.152,102.333 122.341 C 99.537 121.028,97.161 119.871,97.051 119.769 C 96.864 119.595,93.506 114.435,90.422 109.583 L 89.045 107.417 87.934 101.750 C 87.323 98.633,86.713 95.568,86.578 94.938 C 86.393 94.073,86.334 92.562,86.335 88.771 L 86.337 83.750 87.580 83.042 C 89.111 82.169,88.689 82.146,92.537 83.307 C 95.413 84.174,95.893 84.372,96.925 85.111 C 97.562 85.568,99.771 87.139,101.833 88.603 C 103.896 90.066,107.003 92.273,108.737 93.507 L 111.891 95.750 112.630 97.333 C 116.219 105.022,116.109 104.824,117.479 106.107 C 118.862 107.401,118.922 107.421,119.083 106.623 C 119.605 104.044,120.756 100.323,121.338 99.342 C 122.064 98.116,121.918 99.198,122.659 89.583 C 122.843 87.200,123.024 84.875,123.061 84.417 C 123.121 83.671,123.725 81.519,125.365 76.208 L 125.893 74.500 127.340 74.500 L 128.786 74.500 130.352 75.933 M285.666 127.936 L 286.333 128.539 286.333 138.804 L 286.333 149.069 285.716 149.701 L 285.099 150.333 283.138 150.333 L 281.178 150.333 280.589 149.744 L 280.000 149.156 280.000 138.847 L 280.000 128.539 280.667 127.936 L 281.334 127.333 283.167 127.333 L 284.999 127.333 285.666 127.936 M191.838 127.676 C 197.243 128.350,201.369 131.600,202.406 136.000 C 202.842 137.850,202.786 180.149,202.345 182.287 C 201.343 187.142,197.981 190.090,192.798 190.656 C 191.890 190.756,187.739 190.833,183.336 190.833 L 175.493 190.833 174.746 190.145 L 174.000 189.458 174.000 159.193 L 174.000 128.929 174.701 128.215 L 175.403 127.500 182.914 127.500 C 187.186 127.500,191.035 127.576,191.838 127.676 M238.296 130.154 L 238.342 132.725 237.805 133.279 L 237.268 133.833 226.717 133.833 L 216.167 133.833 216.167 144.833 L 216.167 155.833 226.618 155.833 L 237.069 155.833 237.701 156.450 L 238.333 157.068 238.333 159.090 L 238.333 161.113 237.754 161.640 L 237.176 162.167 226.671 162.167 L 216.167 162.167 216.167 173.250 L 216.167 184.333 226.618 184.333 L 237.069 184.333 237.701 184.950 L 238.333 185.568 238.333 187.485 L 238.333 189.403 237.716 190.035 L 237.099 190.667 224.015 190.667 L 210.931 190.667 210.299 190.050 L 209.667 189.432 209.667 159.098 L 209.667 128.764 210.285 128.131 L 210.903 127.498 224.576 127.541 L 238.250 127.583 238.296 130.154 M250.904 127.793 C 251.014 128.139,253.220 139.965,254.177 145.333 C 254.544 147.396,255.103 150.471,255.419 152.167 C 255.734 153.862,256.175 156.300,256.399 157.583 C 256.623 158.867,257.181 161.904,257.639 164.333 C 258.098 166.762,258.600 169.448,258.755 170.301 C 258.911 171.153,259.061 171.828,259.089 171.800 C 259.116 171.772,259.597 169.275,260.157 166.250 C 260.716 163.225,261.248 160.412,261.339 160.000 C 261.429 159.587,261.617 158.575,261.757 157.750 C 261.896 156.925,262.424 154.000,262.930 151.250 C 263.436 148.500,264.188 144.412,264.600 142.167 C 265.013 139.921,265.641 136.546,265.995 134.667 C 266.350 132.787,266.687 130.950,266.743 130.583 C 266.800 130.217,266.964 129.373,267.107 128.708 L 267.367 127.500 269.898 127.500 L 272.429 127.500 273.030 128.218 L 273.630 128.936 273.410 130.176 C 273.289 130.859,272.916 132.842,272.581 134.583 C 272.246 136.325,271.648 139.550,271.252 141.750 C 269.542 151.240,268.503 156.876,267.149 164.000 C 266.687 166.429,266.126 169.467,265.901 170.750 C 265.677 172.033,265.197 174.696,264.834 176.667 C 262.931 187.011,262.468 189.472,262.317 190.045 L 262.152 190.674 259.042 190.629 L 255.931 190.583 255.790 189.917 C 255.572 188.893,253.822 179.447,252.593 172.667 C 251.987 169.321,251.152 164.746,250.739 162.500 C 249.426 155.370,248.867 152.316,248.420 149.833 C 248.181 148.504,247.238 143.345,246.326 138.368 C 244.395 127.837,244.515 129.002,245.269 128.167 L 245.872 127.500 248.341 127.500 C 250.551 127.500,250.821 127.531,250.904 127.793 M311.083 127.853 C 318.280 129.024,321.833 133.466,321.966 141.458 L 322.031 145.333 319.399 145.333 L 316.766 145.333 316.216 144.801 L 315.667 144.268 315.667 142.086 C 315.667 136.459,313.305 134.013,307.833 133.972 C 303.848 133.942,301.437 135.151,300.193 137.804 L 299.750 138.750 299.700 144.558 C 299.653 150.126,299.665 150.411,300.008 151.442 C 300.990 154.393,303.075 155.562,307.833 155.833 C 315.052 156.243,319.091 158.742,321.002 163.979 C 322.424 167.875,322.150 180.235,320.572 183.359 C 315.766 192.875,299.276 192.958,294.603 183.491 C 293.550 181.358,293.340 180.221,293.336 176.642 L 293.333 173.701 293.922 173.184 C 294.509 172.669,294.519 172.667,296.457 172.667 L 298.403 172.667 299.035 173.284 L 299.667 173.901 299.667 176.341 C 299.667 181.797,301.914 184.038,307.417 184.071 C 312.132 184.098,314.749 182.409,315.513 178.845 C 315.882 177.125,315.634 167.392,315.194 166.292 C 314.128 163.633,311.437 162.168,307.614 162.166 C 300.663 162.163,295.504 158.686,293.890 152.917 C 293.468 151.406,293.356 140.234,293.741 138.003 C 295.011 130.640,302.233 126.413,311.083 127.853 M180.500 159.079 L 180.500 184.352 186.792 184.301 C 194.423 184.239,194.705 184.166,195.729 182.000 L 196.083 181.250 196.083 159.167 L 196.083 137.083 195.559 136.333 C 195.260 135.905,194.641 135.346,194.114 135.029 C 192.369 133.980,192.135 133.946,186.042 133.873 L 180.500 133.806 180.500 159.079 " stroke="none" fill="#fcfcfc" fill-rule="evenodd"></path><path id="path1" d="M125.944 74.625 C 125.903 74.694,125.561 75.800,125.185 77.083 C 124.809 78.367,124.207 80.412,123.848 81.628 C 123.432 83.040,123.157 84.366,123.087 85.295 C 123.027 86.095,122.836 88.513,122.662 90.667 C 122.488 92.821,122.297 95.408,122.236 96.417 C 122.128 98.195,122.104 98.285,121.418 99.417 C 120.829 100.386,120.561 101.153,119.826 103.958 C 118.818 107.807,118.963 107.673,117.387 106.198 C 116.103 104.996,116.367 105.457,113.516 99.417 C 112.954 98.225,112.326 96.915,112.122 96.505 C 111.739 95.737,111.221 95.351,97.836 85.850 C 95.473 84.173,95.812 84.317,90.943 82.913 L 88.970 82.345 87.737 83.047 L 86.504 83.750 86.502 88.750 C 86.500 92.501,86.562 94.083,86.750 95.083 C 86.888 95.817,87.407 98.554,87.903 101.167 C 88.400 103.779,88.856 106.217,88.918 106.583 C 89.029 107.248,90.250 109.246,94.955 116.458 C 96.077 118.177,96.995 119.630,96.997 119.688 C 96.999 119.745,97.361 119.948,97.802 120.137 C 98.243 120.327,100.437 121.357,102.677 122.426 C 104.917 123.495,106.995 124.476,107.294 124.605 L 107.837 124.839 107.502 125.496 C 107.101 126.282,107.087 126.876,107.417 129.224 L 107.667 131.007 104.936 134.295 C 103.433 136.104,102.224 137.606,102.249 137.633 C 102.274 137.660,103.334 137.223,104.605 136.661 C 105.877 136.099,107.010 135.600,107.125 135.552 C 107.286 135.484,107.333 135.991,107.334 137.774 C 107.335 139.841,107.372 140.145,107.691 140.667 C 107.888 140.987,109.546 143.792,111.376 146.899 L 114.704 152.549 114.352 153.760 C 113.884 155.369,113.869 155.298,114.917 156.333 L 115.833 157.239 115.843 160.994 L 115.852 164.750 116.645 167.394 L 117.438 170.038 120.826 173.422 L 124.214 176.805 124.104 178.444 C 123.971 180.436,123.774 182.665,123.334 187.171 C 122.842 192.204,122.642 191.282,125.448 196.898 L 127.896 201.797 130.323 202.928 C 138.444 206.713,139.455 207.167,139.762 207.167 C 140.037 207.167,141.950 206.327,147.642 203.707 L 151.868 201.762 154.351 196.797 L 156.835 191.833 156.669 189.958 C 156.578 188.927,156.454 187.500,156.394 186.786 C 156.242 184.986,156.248 184.980,154.491 188.510 L 152.919 191.667 142.387 191.667 L 131.855 191.667 132.664 189.958 C 133.109 189.019,134.727 185.737,136.259 182.667 C 137.791 179.596,140.187 174.758,141.584 171.917 C 142.981 169.075,146.168 162.625,148.667 157.583 C 155.951 142.889,162.333 129.957,162.333 129.893 C 162.333 129.861,153.765 129.816,143.292 129.792 L 124.250 129.750 124.207 121.958 L 124.163 114.167 153.993 114.167 L 183.822 114.167 183.870 116.013 L 183.917 117.859 187.235 112.721 C 189.060 109.895,190.615 107.321,190.691 107.000 C 190.767 106.679,191.393 103.535,192.081 100.014 L 193.333 93.611 193.333 88.681 L 193.333 83.750 192.037 83.050 L 190.740 82.350 187.495 83.284 L 184.250 84.218 181.417 86.224 C 179.858 87.327,176.371 89.802,173.667 91.725 C 170.963 93.647,168.575 95.343,168.361 95.493 C 168.110 95.670,167.211 97.386,165.824 100.342 L 163.676 104.917 162.390 106.129 C 161.684 106.795,161.033 107.317,160.945 107.287 C 160.857 107.258,160.379 105.701,159.883 103.828 C 159.142 101.033,158.862 100.234,158.322 99.379 L 157.664 98.337 157.427 95.210 C 157.297 93.490,157.064 90.321,156.909 88.167 C 156.606 83.963,156.383 82.928,154.379 76.458 L 153.773 74.500 152.428 74.503 L 151.083 74.506 150.167 75.359 C 149.662 75.828,148.849 76.564,148.359 76.994 L 147.467 77.776 147.159 81.930 C 146.989 84.214,146.749 87.520,146.625 89.276 L 146.401 92.468 145.753 93.193 C 145.396 93.591,144.369 94.697,143.469 95.650 L 141.833 97.383 140.597 97.463 C 138.133 97.621,138.136 97.623,135.617 94.943 L 133.387 92.572 133.281 91.494 C 133.185 90.515,132.990 87.809,132.490 80.500 L 132.313 77.917 130.532 76.215 L 128.750 74.513 127.385 74.507 C 126.634 74.503,125.986 74.556,125.944 74.625 M210.410 128.174 L 209.833 128.764 209.833 159.098 L 209.833 189.432 210.465 190.050 L 211.097 190.667 224.068 190.667 L 237.039 190.667 237.686 190.020 L 238.333 189.373 238.333 187.525 C 238.333 185.697,238.328 185.672,237.816 185.089 L 237.299 184.500 226.858 184.497 C 221.115 184.496,216.322 184.435,216.207 184.362 C 216.042 184.257,216.007 181.921,216.040 173.239 L 216.083 162.250 226.607 162.207 L 237.130 162.164 237.732 161.498 L 238.333 160.832 238.333 159.033 L 238.333 157.234 237.703 156.618 L 237.072 156.003 226.578 155.960 L 216.083 155.917 216.040 144.875 L 215.998 133.833 226.548 133.833 L 237.099 133.833 237.716 133.201 L 238.333 132.569 238.333 130.196 C 238.333 128.445,238.279 127.805,238.125 127.754 C 238.010 127.716,231.857 127.662,224.451 127.634 L 210.986 127.583 210.410 128.174 M245.889 127.629 C 245.782 127.697,245.473 128.032,245.201 128.373 L 244.708 128.993 245.094 131.122 C 245.555 133.662,246.968 141.353,247.659 145.083 C 247.931 146.550,248.500 149.662,248.924 152.000 C 249.347 154.337,250.323 159.662,251.091 163.833 C 251.860 168.004,253.239 175.550,254.156 180.602 C 255.074 185.655,255.900 189.986,255.991 190.227 L 256.158 190.667 259.069 190.667 C 260.670 190.667,262.023 190.598,262.074 190.514 C 262.194 190.320,262.966 186.312,264.661 177.083 C 265.401 173.050,266.567 166.712,267.251 163.000 C 267.935 159.287,269.061 153.175,269.754 149.417 C 270.446 145.658,271.572 139.577,272.256 135.903 C 273.719 128.046,273.635 129.051,272.904 128.197 L 272.307 127.500 269.917 127.500 L 267.527 127.500 267.273 128.625 C 266.965 129.991,265.615 137.185,263.919 146.500 C 263.227 150.304,262.586 153.792,262.494 154.250 C 262.137 156.043,259.794 168.684,259.503 170.389 C 259.333 171.382,259.157 172.232,259.112 172.277 C 259.006 172.383,258.949 172.091,257.254 162.750 C 256.472 158.442,255.575 153.529,255.262 151.833 C 254.948 150.137,254.378 147.025,253.994 144.917 C 252.412 136.219,250.821 127.782,250.737 127.645 C 250.628 127.469,246.164 127.454,245.889 127.629 M280.617 128.132 L 280.000 128.764 280.000 138.932 L 280.000 149.099 280.632 149.716 L 281.264 150.333 283.182 150.333 L 285.099 150.333 285.716 149.701 L 286.333 149.069 286.333 138.952 L 286.333 128.834 285.731 128.167 L 285.128 127.500 283.181 127.500 L 281.234 127.500 280.617 128.132 M174.756 128.184 L 174.167 128.701 174.167 159.101 L 174.167 189.501 174.785 190.084 L 175.403 190.667 184.076 190.664 C 192.035 190.662,192.881 190.635,194.333 190.336 C 197.611 189.660,199.800 188.027,201.213 185.205 C 202.674 182.285,202.583 184.039,202.583 158.833 L 202.583 136.583 202.116 135.250 C 201.050 132.207,198.744 129.933,195.428 128.650 C 193.009 127.715,192.422 127.667,183.491 127.667 L 175.345 127.667 174.756 128.184 M304.969 127.836 C 299.440 128.709,295.644 131.761,294.130 136.550 C 293.591 138.252,293.537 151.400,294.062 153.083 C 295.827 158.749,299.869 161.556,306.917 162.011 C 311.918 162.334,313.751 163.189,315.037 165.798 L 315.583 166.909 315.633 172.811 C 315.689 179.440,315.647 179.760,314.516 181.369 C 312.057 184.868,304.563 185.230,301.319 182.006 C 299.913 180.610,299.638 179.753,299.515 176.391 C 299.384 172.814,299.401 172.833,296.441 172.833 L 294.399 172.833 293.844 173.406 L 293.288 173.979 293.379 177.031 C 293.630 185.542,298.184 190.029,306.833 190.289 C 314.595 190.522,319.837 187.114,321.396 180.823 C 321.792 179.224,321.797 166.977,321.402 165.344 C 320.043 159.726,315.652 156.502,308.667 155.995 C 303.990 155.656,302.711 155.242,301.187 153.574 C 299.618 151.857,299.583 151.667,299.583 144.825 L 299.583 138.899 300.213 137.625 C 301.530 134.960,304.388 133.643,308.330 133.885 C 313.446 134.198,315.535 136.351,315.638 141.417 L 315.692 144.083 316.296 144.708 L 316.901 145.333 319.348 145.333 L 321.795 145.333 321.908 142.375 C 322.106 137.199,321.284 134.537,318.612 131.705 C 315.712 128.632,310.065 127.030,304.969 127.836 M191.964 134.085 C 193.300 134.400,194.181 134.853,195.091 135.692 C 196.442 136.937,196.349 135.100,196.296 159.417 L 196.250 181.083 195.854 181.960 C 194.834 184.216,194.103 184.407,186.500 184.413 L 180.583 184.417 180.541 159.125 L 180.499 133.833 185.708 133.836 C 189.719 133.838,191.157 133.895,191.964 134.085 " stroke="none" fill="#040404" fill-rule="evenodd"></path><path id="path2" d="" stroke="none" fill="#bc10080" fill-rule="evenodd"></path><path id="path3" d="" stroke="none" fill="#bc10080" fill-rule="evenodd"></path><path id="path4" d="" stroke="none" fill="#bc10080" fill-rule="evenodd"></path></g></svg>